# xmcd
#
# Track frame offsets:
#	150
#	10730
#	23440
#	35422
#	44945
#	55150
#	66940
#	77832
#	88540
#	101077
#	113007
#	126217
#	139947
#	151052
#	162685
#	173852
#	184690
#	199070
#	212425
#	225702
#	238385
#	249922
#	259110
#	273997
#	286630
#
# Disc length: 3997 seconds
#
# Revision: 0
# Processed by: cddbd v1.4PL0 Copyright (c) Steve Scherf et al.
# Submitted via: dBpowerAMP V4.0
#
DISCID=5a0f9b19
DTITLE=Little Buster - Looking For A Home
DYEAR=1997
DGENRE=Soul
TTITLE0=Lookin' for a Home 
TTITLE1=I Think I'm Falling in Love 
TTITLE2=It's a Loving Time 
TTITLE3=All Night Worker 
TTITLE4=I Got a Good Thing Going 
TTITLE5=I Proved I Love You 
TTITLE6=But I Do 
TTITLE7=I'm So Lonely
TTITLE8=Young Boy Blues 
TTITLE9=Cry Me a River 
TTITLE10=You Were Meant for Me 
TTITLE11=River's Invitation 
TTITLE12=Whole Lotta Lovin' 
TTITLE13=He's Gone
TTITLE14=I Knew It All the Time 
TTITLE15=T.C.B
TTITLE16=I Love You, Yes I Do
TTITLE17=I've Got Tears in My Eyes 
TTITLE18=Just a Letter 
TTITLE19=What a Fool I've Been 
TTITLE20=Why Did It Have to Be Me 
TTITLE21=All I Could Do Was Cry, Pt. 1 
TTITLE22=All I Could Do Was Cry, Pt. 2
TTITLE23=Any Day Love Walks In 
TTITLE24=I Think I'm Falling in Love 
EXTD=
EXTT0=
EXTT1=
EXTT2=
EXTT3=
EXTT4=
EXTT5=
EXTT6=
EXTT7=
EXTT8=
EXTT9=
EXTT10=
EXTT11=
EXTT12=
EXTT13=
EXTT14=
EXTT15=
EXTT16=
EXTT17=
EXTT18=
EXTT19=
EXTT20=
EXTT21=
EXTT22=
EXTT23=
EXTT24=
PLAYORDER=
